<svg xmlns="http://www.w3.org/2000/svg" xmlns:xlink="http://www.w3.org/1999/xlink" width="192" zoomAndPan="magnify" viewBox="0 0 144 143.999998" height="192" preserveAspectRatio="xMidYMid meet" version="1.0"><defs><g/><clipPath id="7833149e01"><path d="M 27.785156 17.453125 L 123.785156 17.453125 L 123.785156 113.453125 L 27.785156 113.453125 Z M 27.785156 17.453125 " clip-rule="nonzero"/></clipPath><clipPath id="43a0d1a3a7"><path d="M 34.550781 24.21875 L 94.550781 24.21875 L 94.550781 84.21875 L 34.550781 84.21875 Z M 34.550781 24.21875 " clip-rule="nonzero"/></clipPath><clipPath id="e70de25e7b"><path d="M 34.550781 24.21875 L 117.050781 24.21875 L 117.050781 106.71875 L 34.550781 106.71875 Z M 34.550781 24.21875 " clip-rule="nonzero"/></clipPath></defs><rect x="-14.4" width="172.8" fill="#ffffff" y="-14.4" height="172.799997" fill-opacity="1"/><rect x="-14.4" width="172.8" fill="#ffffff" y="-14.4" height="172.799997" fill-opacity="1"/><rect x="-14.4" width="172.8" fill="#ffffff" y="-14.4" height="172.799997" fill-opacity="1"/><g clip-path="url(#7833149e01)"><path fill="#000000" d="M 123.785156 65.453125 C 123.785156 67.027344 123.707031 68.59375 123.554688 70.160156 C 123.398438 71.722656 123.167969 73.277344 122.863281 74.820312 C 122.554688 76.359375 122.171875 77.882812 121.71875 79.386719 C 121.261719 80.890625 120.730469 82.371094 120.128906 83.824219 C 119.527344 85.277344 118.859375 86.695312 118.117188 88.082031 C 117.375 89.46875 116.566406 90.816406 115.695312 92.121094 C 114.820312 93.429688 113.886719 94.691406 112.890625 95.90625 C 111.890625 97.121094 110.835938 98.285156 109.726562 99.394531 C 108.613281 100.507812 107.449219 101.5625 106.234375 102.558594 C 105.019531 103.554688 103.757812 104.492188 102.453125 105.363281 C 101.144531 106.238281 99.796875 107.046875 98.410156 107.785156 C 97.023438 108.527344 95.605469 109.199219 94.152344 109.800781 C 92.699219 110.402344 91.222656 110.929688 89.71875 111.386719 C 88.214844 111.84375 86.691406 112.226562 85.148438 112.53125 C 83.605469 112.839844 82.054688 113.070312 80.488281 113.222656 C 78.925781 113.378906 77.355469 113.453125 75.785156 113.453125 C 74.210938 113.453125 72.644531 113.378906 71.078125 113.222656 C 69.515625 113.070312 67.960938 112.839844 66.417969 112.53125 C 64.878906 112.226562 63.355469 111.84375 61.851562 111.386719 C 60.347656 110.929688 58.867188 110.402344 57.414062 109.800781 C 55.964844 109.199219 54.542969 108.527344 53.15625 107.785156 C 51.769531 107.046875 50.425781 106.238281 49.117188 105.363281 C 47.808594 104.492188 46.546875 103.554688 45.332031 102.558594 C 44.117188 101.5625 42.953125 100.507812 41.84375 99.394531 C 40.730469 98.285156 39.675781 97.121094 38.679688 95.90625 C 37.683594 94.691406 36.746094 93.429688 35.875 92.121094 C 35 90.816406 34.191406 89.46875 33.453125 88.082031 C 32.710938 86.695312 32.039062 85.277344 31.4375 83.824219 C 30.835938 82.371094 30.308594 80.890625 29.851562 79.386719 C 29.394531 77.882812 29.011719 76.359375 28.707031 74.820312 C 28.398438 73.277344 28.167969 71.722656 28.015625 70.160156 C 27.859375 68.59375 27.785156 67.027344 27.785156 65.453125 C 27.785156 63.882812 27.859375 62.3125 28.015625 60.75 C 28.167969 59.183594 28.398438 57.632812 28.707031 56.089844 C 29.011719 54.546875 29.394531 53.023438 29.851562 51.519531 C 30.308594 50.015625 30.835938 48.539062 31.4375 47.085938 C 32.039062 45.632812 32.710938 44.214844 33.453125 42.828125 C 34.191406 41.441406 35 40.09375 35.875 38.785156 C 36.746094 37.480469 37.683594 36.21875 38.679688 35.003906 C 39.675781 33.789062 40.730469 32.625 41.84375 31.511719 C 42.953125 30.402344 44.117188 29.347656 45.332031 28.351562 C 46.546875 27.351562 47.808594 26.417969 49.117188 25.542969 C 50.425781 24.671875 51.769531 23.863281 53.15625 23.121094 C 54.542969 22.382812 55.964844 21.710938 57.414062 21.109375 C 58.867188 20.507812 60.347656 19.976562 61.851562 19.519531 C 63.355469 19.066406 64.878906 18.683594 66.417969 18.375 C 67.960938 18.070312 69.515625 17.839844 71.078125 17.683594 C 72.644531 17.53125 74.210938 17.453125 75.785156 17.453125 C 77.355469 17.453125 78.925781 17.53125 80.488281 17.683594 C 82.054688 17.839844 83.605469 18.070312 85.148438 18.375 C 86.691406 18.683594 88.214844 19.066406 89.71875 19.519531 C 91.222656 19.976562 92.699219 20.507812 94.152344 21.109375 C 95.605469 21.710938 97.023438 22.382812 98.410156 23.121094 C 99.796875 23.863281 101.144531 24.671875 102.453125 25.542969 C 103.757812 26.417969 105.019531 27.351562 106.234375 28.351562 C 107.449219 29.347656 108.613281 30.402344 109.726562 31.511719 C 110.835938 32.625 111.890625 33.789062 112.890625 35.003906 C 113.886719 36.21875 114.820312 37.480469 115.695312 38.785156 C 116.566406 40.09375 117.375 41.441406 118.117188 42.828125 C 118.859375 44.214844 119.527344 45.632812 120.128906 47.085938 C 120.730469 48.539062 121.261719 50.015625 121.71875 51.519531 C 122.171875 53.023438 122.554688 54.546875 122.863281 56.089844 C 123.167969 57.632812 123.398438 59.183594 123.554688 60.75 C 123.707031 62.3125 123.785156 63.882812 123.785156 65.453125 Z M 123.785156 65.453125 " fill-opacity="1" fill-rule="nonzero"/></g><g clip-path="url(#43a0d1a3a7)"><path fill="#ffffff" d="M 94.550781 54.21875 C 94.550781 55.203125 94.5 56.183594 94.40625 57.160156 C 94.308594 58.136719 94.164062 59.109375 93.972656 60.074219 C 93.78125 61.035156 93.542969 61.988281 93.257812 62.929688 C 92.972656 63.867188 92.640625 64.792969 92.265625 65.699219 C 91.890625 66.609375 91.46875 67.496094 91.007812 68.363281 C 90.542969 69.226562 90.039062 70.070312 89.492188 70.886719 C 88.949219 71.703125 88.363281 72.492188 87.738281 73.25 C 87.117188 74.011719 86.457031 74.738281 85.761719 75.433594 C 85.066406 76.128906 84.339844 76.785156 83.582031 77.410156 C 82.820312 78.035156 82.035156 78.617188 81.214844 79.164062 C 80.398438 79.710938 79.558594 80.214844 78.691406 80.675781 C 77.824219 81.140625 76.9375 81.558594 76.03125 81.9375 C 75.121094 82.3125 74.199219 82.644531 73.257812 82.929688 C 72.316406 83.214844 71.367188 83.453125 70.402344 83.644531 C 69.4375 83.835938 68.46875 83.980469 67.488281 84.074219 C 66.511719 84.171875 65.53125 84.21875 64.550781 84.21875 C 63.566406 84.21875 62.585938 84.171875 61.609375 84.074219 C 60.632812 83.980469 59.660156 83.835938 58.695312 83.644531 C 57.734375 83.453125 56.78125 83.214844 55.839844 82.929688 C 54.902344 82.644531 53.976562 82.3125 53.070312 81.9375 C 52.160156 81.558594 51.273438 81.140625 50.40625 80.675781 C 49.542969 80.214844 48.699219 79.710938 47.882812 79.164062 C 47.066406 78.617188 46.277344 78.035156 45.519531 77.410156 C 44.757812 76.785156 44.03125 76.128906 43.335938 75.433594 C 42.640625 74.738281 41.984375 74.011719 41.359375 73.25 C 40.734375 72.492188 40.152344 71.703125 39.605469 70.886719 C 39.058594 70.070312 38.554688 69.226562 38.09375 68.363281 C 37.628906 67.496094 37.210938 66.609375 36.832031 65.699219 C 36.457031 64.792969 36.125 63.867188 35.839844 62.929688 C 35.554688 61.988281 35.316406 61.035156 35.125 60.074219 C 34.933594 59.109375 34.789062 58.136719 34.695312 57.160156 C 34.597656 56.183594 34.550781 55.203125 34.550781 54.21875 C 34.550781 53.238281 34.597656 52.257812 34.695312 51.277344 C 34.789062 50.300781 34.933594 49.332031 35.125 48.367188 C 35.316406 47.402344 35.554688 46.453125 35.839844 45.511719 C 36.125 44.570312 36.457031 43.648438 36.832031 42.738281 C 37.210938 41.832031 37.628906 40.945312 38.09375 40.078125 C 38.554688 39.210938 39.058594 38.371094 39.605469 37.550781 C 40.152344 36.734375 40.734375 35.949219 41.359375 35.1875 C 41.984375 34.429688 42.640625 33.703125 43.335938 33.007812 C 44.03125 32.3125 44.757812 31.652344 45.519531 31.03125 C 46.277344 30.40625 47.066406 29.820312 47.882812 29.277344 C 48.699219 28.730469 49.542969 28.226562 50.40625 27.761719 C 51.273438 27.300781 52.160156 26.878906 53.070312 26.503906 C 53.976562 26.128906 54.902344 25.796875 55.839844 25.511719 C 56.78125 25.226562 57.734375 24.988281 58.695312 24.796875 C 59.660156 24.605469 60.632812 24.460938 61.609375 24.363281 C 62.585938 24.269531 63.566406 24.21875 64.550781 24.21875 C 65.53125 24.21875 66.511719 24.269531 67.488281 24.363281 C 68.46875 24.460938 69.4375 24.605469 70.402344 24.796875 C 71.367188 24.988281 72.316406 25.226562 73.257812 25.511719 C 74.199219 25.796875 75.121094 26.128906 76.03125 26.503906 C 76.9375 26.878906 77.824219 27.300781 78.691406 27.761719 C 79.558594 28.226562 80.398438 28.730469 81.214844 29.277344 C 82.035156 29.820312 82.820312 30.40625 83.582031 31.03125 C 84.339844 31.652344 85.066406 32.3125 85.761719 33.007812 C 86.457031 33.703125 87.117188 34.429688 87.738281 35.1875 C 88.363281 35.949219 88.949219 36.734375 89.492188 37.550781 C 90.039062 38.371094 90.542969 39.210938 91.007812 40.078125 C 91.46875 40.945312 91.890625 41.832031 92.265625 42.738281 C 92.640625 43.648438 92.972656 44.570312 93.257812 45.511719 C 93.542969 46.453125 93.78125 47.402344 93.972656 48.367188 C 94.164062 49.332031 94.308594 50.300781 94.40625 51.277344 C 94.5 52.257812 94.550781 53.238281 94.550781 54.21875 Z M 94.550781 54.21875 " fill-opacity="1" fill-rule="nonzero"/></g><g clip-path="url(#e70de25e7b)"><path fill="#0d3469" d="M 117.050781 65.46875 C 117.050781 66.820312 116.984375 68.167969 116.851562 69.511719 C 116.71875 70.855469 116.519531 72.191406 116.257812 73.515625 C 115.992188 74.84375 115.664062 76.152344 115.273438 77.445312 C 114.882812 78.738281 114.425781 80.007812 113.910156 81.253906 C 113.390625 82.503906 112.816406 83.722656 112.179688 84.914062 C 111.542969 86.105469 110.847656 87.261719 110.097656 88.386719 C 109.347656 89.511719 108.542969 90.59375 107.6875 91.636719 C 106.828125 92.683594 105.921875 93.683594 104.96875 94.636719 C 104.011719 95.59375 103.011719 96.5 101.96875 97.355469 C 100.925781 98.214844 99.839844 99.015625 98.71875 99.769531 C 97.59375 100.519531 96.4375 101.210938 95.246094 101.847656 C 94.054688 102.484375 92.832031 103.0625 91.585938 103.578125 C 90.335938 104.097656 89.066406 104.550781 87.773438 104.945312 C 86.480469 105.335938 85.171875 105.664062 83.847656 105.925781 C 82.523438 106.191406 81.1875 106.386719 79.84375 106.519531 C 78.5 106.652344 77.152344 106.71875 75.800781 106.71875 C 74.449219 106.71875 73.101562 106.652344 71.757812 106.519531 C 70.410156 106.386719 69.078125 106.191406 67.753906 105.925781 C 66.425781 105.664062 65.117188 105.335938 63.824219 104.945312 C 62.53125 104.550781 61.261719 104.097656 60.015625 103.578125 C 58.765625 103.0625 57.546875 102.484375 56.355469 101.847656 C 55.164062 101.210938 54.003906 100.519531 52.882812 99.769531 C 51.757812 99.015625 50.675781 98.214844 49.628906 97.355469 C 48.585938 96.5 47.585938 95.59375 46.632812 94.636719 C 45.675781 93.683594 44.769531 92.683594 43.914062 91.636719 C 43.054688 90.59375 42.253906 89.511719 41.5 88.386719 C 40.75 87.261719 40.058594 86.105469 39.421875 84.914062 C 38.785156 83.722656 38.207031 82.503906 37.691406 81.253906 C 37.171875 80.007812 36.71875 78.738281 36.324219 77.445312 C 35.933594 76.152344 35.605469 74.84375 35.34375 73.515625 C 35.078125 72.191406 34.878906 70.855469 34.75 69.511719 C 34.617188 68.167969 34.550781 66.820312 34.550781 65.46875 C 34.550781 64.117188 34.617188 62.769531 34.75 61.425781 C 34.878906 60.082031 35.078125 58.746094 35.34375 57.421875 C 35.605469 56.097656 35.933594 54.789062 36.324219 53.496094 C 36.71875 52.203125 37.171875 50.933594 37.691406 49.683594 C 38.207031 48.4375 38.785156 47.214844 39.421875 46.023438 C 40.058594 44.832031 40.75 43.675781 41.5 42.550781 C 42.253906 41.429688 43.054688 40.34375 43.914062 39.300781 C 44.769531 38.257812 45.675781 37.257812 46.632812 36.300781 C 47.585938 35.347656 48.585938 34.441406 49.628906 33.582031 C 50.675781 32.726562 51.757812 31.921875 52.882812 31.171875 C 54.003906 30.421875 55.164062 29.726562 56.355469 29.089844 C 57.546875 28.453125 58.765625 27.875 60.015625 27.359375 C 61.261719 26.84375 62.53125 26.386719 63.824219 25.996094 C 65.117188 25.605469 66.425781 25.277344 67.753906 25.011719 C 69.078125 24.75 70.410156 24.550781 71.757812 24.417969 C 73.101562 24.285156 74.449219 24.21875 75.800781 24.21875 C 77.152344 24.21875 78.5 24.285156 79.84375 24.417969 C 81.1875 24.550781 82.523438 24.75 83.847656 25.011719 C 85.171875 25.277344 86.480469 25.605469 87.773438 25.996094 C 89.066406 26.386719 90.335938 26.84375 91.585938 27.359375 C 92.832031 27.875 94.054688 28.453125 95.246094 29.089844 C 96.4375 29.726562 97.59375 30.421875 98.71875 31.171875 C 99.839844 31.921875 100.925781 32.726562 101.96875 33.582031 C 103.011719 34.441406 104.011719 35.347656 104.96875 36.300781 C 105.921875 37.257812 106.828125 38.257812 107.6875 39.300781 C 108.542969 40.34375 109.347656 41.429688 110.097656 42.550781 C 110.847656 43.675781 111.542969 44.832031 112.179688 46.023438 C 112.816406 47.214844 113.390625 48.4375 113.910156 49.683594 C 114.425781 50.933594 114.882812 52.203125 115.273438 53.496094 C 115.664062 54.789062 115.992188 56.097656 116.257812 57.421875 C 116.519531 58.746094 116.71875 60.082031 116.851562 61.425781 C 116.984375 62.769531 117.050781 64.117188 117.050781 65.46875 Z M 117.050781 65.46875 " fill-opacity="1" fill-rule="nonzero"/></g><g fill="#ffffff" fill-opacity="1"><g transform="translate(42.372949, 91.615019)"><g><path d="M 35.984375 -55.6875 C 39.910156 -55.6875 43.546875 -55.296875 46.890625 -54.515625 C 50.234375 -53.734375 53.71875 -52.488281 57.34375 -50.78125 C 58.75 -50.125 59.65625 -49.796875 60.0625 -49.796875 C 60.507812 -49.796875 61.007812 -50.175781 61.5625 -50.9375 L 62.46875 -50.40625 L 56.96875 -39.84375 L 55.828125 -40.4375 C 55.984375 -40.894531 56.0625 -41.273438 56.0625 -41.578125 C 56.0625 -42.378906 55.570312 -43.242188 54.59375 -44.171875 C 53.613281 -45.109375 52.253906 -45.953125 50.515625 -46.703125 C 48.773438 -47.460938 46.734375 -48.09375 44.390625 -48.59375 C 42.054688 -49.09375 39.507812 -49.34375 36.75 -49.34375 C 33.125 -49.34375 29.789062 -48.828125 26.75 -47.796875 C 23.707031 -46.765625 21.066406 -45.304688 18.828125 -43.421875 C 16.585938 -41.535156 14.847656 -39.242188 13.609375 -36.546875 C 12.378906 -33.859375 11.765625 -30.878906 11.765625 -27.609375 C 11.765625 -24.296875 12.367188 -21.28125 13.578125 -18.5625 C 14.785156 -15.84375 16.457031 -13.523438 18.59375 -11.609375 C 20.738281 -9.703125 23.253906 -8.21875 26.140625 -7.15625 C 29.035156 -6.101562 32.191406 -5.578125 35.609375 -5.578125 C 38.484375 -5.578125 41.226562 -5.953125 43.84375 -6.703125 C 46.457031 -7.460938 48.753906 -8.367188 50.734375 -9.421875 C 52.722656 -10.484375 54.320312 -11.578125 55.53125 -12.703125 C 56.738281 -13.835938 57.34375 -14.785156 57.34375 -15.546875 C 57.34375 -16.148438 57.242188 -16.753906 57.046875 -17.359375 L 57.640625 -17.8125 L 64.734375 -8.75 L 64.140625 -8.296875 C 63.890625 -8.546875 63.613281 -8.734375 63.3125 -8.859375 C 63.007812 -8.984375 62.65625 -9.046875 62.25 -9.046875 C 61.789062 -9.046875 61.195312 -8.753906 60.46875 -8.171875 C 59.738281 -7.597656 58.972656 -7.035156 58.171875 -6.484375 C 57.066406 -5.679688 55.785156 -4.851562 54.328125 -4 C 52.867188 -3.144531 51.195312 -2.363281 49.3125 -1.65625 C 47.425781 -0.957031 45.285156 -0.382812 42.890625 0.0625 C 40.503906 0.519531 37.800781 0.75 34.78125 0.75 C 30.957031 0.75 27.207031 0.0703125 23.53125 -1.28125 C 19.863281 -2.632812 16.582031 -4.546875 13.6875 -7.015625 C 10.800781 -9.484375 8.476562 -12.453125 6.71875 -15.921875 C 4.957031 -19.390625 4.078125 -23.238281 4.078125 -27.46875 C 4.078125 -31.6875 4.957031 -35.519531 6.71875 -38.96875 C 8.476562 -42.414062 10.828125 -45.382812 13.765625 -47.875 C 16.710938 -50.363281 20.109375 -52.285156 23.953125 -53.640625 C 27.804688 -55.003906 31.816406 -55.6875 35.984375 -55.6875 Z M 35.984375 -55.6875 "/></g></g></g><g fill="#ffffff" fill-opacity="1"><g transform="translate(55.9997, 83.122051)"><g><path d="M 14.375 -16.734375 L 32.5 -16.734375 L 23.203125 -37.40625 Z M 29.03125 -42.015625 L 29.03125 -41.328125 C 28.875 -41.253906 28.632812 -41.15625 28.3125 -41.03125 C 27.988281 -40.914062 27.828125 -40.707031 27.828125 -40.40625 C 27.828125 -40.207031 28.035156 -39.628906 28.453125 -38.671875 L 45.3125 -2.25 C 45.582031 -1.675781 45.8125 -1.300781 46 -1.125 C 46.195312 -0.945312 46.675781 -0.800781 47.4375 -0.6875 L 47.4375 0 L 37.859375 0 L 37.859375 -0.6875 C 38.585938 -0.726562 38.953125 -0.960938 38.953125 -1.390625 C 38.953125 -1.617188 38.894531 -1.882812 38.78125 -2.1875 C 38.664062 -2.5 38.535156 -2.828125 38.390625 -3.171875 C 38.191406 -3.515625 37.800781 -4.359375 37.21875 -5.703125 C 36.644531 -7.054688 35.800781 -9.039062 34.6875 -11.65625 L 12.234375 -11.65625 L 8.765625 -3.296875 C 8.578125 -2.753906 8.4375 -2.375 8.34375 -2.15625 C 8.25 -1.945312 8.203125 -1.75 8.203125 -1.5625 C 8.203125 -1.363281 8.273438 -1.1875 8.421875 -1.03125 C 8.578125 -0.882812 8.847656 -0.769531 9.234375 -0.6875 L 9.234375 0 L 0.6875 0 L 0.6875 -0.6875 C 1.070312 -0.6875 1.390625 -0.722656 1.640625 -0.796875 C 1.890625 -0.878906 2.109375 -1.023438 2.296875 -1.234375 C 2.492188 -1.453125 2.695312 -1.769531 2.90625 -2.1875 C 3.125 -2.613281 3.382812 -3.191406 3.6875 -3.921875 L 18.53125 -38.265625 C 18.71875 -38.722656 18.890625 -39.144531 19.046875 -39.53125 C 19.203125 -39.914062 19.28125 -40.222656 19.28125 -40.453125 C 19.28125 -40.648438 19.210938 -40.828125 19.078125 -40.984375 C 18.941406 -41.140625 18.601562 -41.253906 18.0625 -41.328125 L 18.0625 -42.015625 Z M 29.03125 -42.015625 "/></g></g></g></svg>